<?xml version="1.0" encoding="UTF-8"?>
<svg width="724px" height="320px" viewBox="0 0 724 320" version="1.1" xmlns="http://www.w3.org/2000/svg" xmlns:xlink="http://www.w3.org/1999/xlink">
    <!-- Generator: Sketch 55.1 (78136) - https://sketchapp.com -->
    <title>Artboard</title>
    <desc>Created with Sketch.</desc>
    <g id="Artboard" stroke="none" stroke-width="1" fill="none" fill-rule="evenodd">
        <g id="parris.io" transform="translate(28.447266, 79.135742)" fill-rule="nonzero">
            <path d="M88.8652344,80.6713867 C88.8652344,89.3439561 86.7534391,97.2279919 82.5297852,104.32373 C78.3061312,111.419469 72.5338908,116.966451 65.2128906,120.964844 C57.8918905,124.963236 49.8389111,126.962402 41.0537109,126.962402 C32.8316646,126.962402 26.1865488,124.146675 21.1181641,118.515137 L21.1181641,170.972656 L0,170.972656 L0,36.0698242 L16.8945312,36.0698242 L21.1181641,41.8139648 C25.7923411,36.576634 32.0432551,33.9580078 39.8710938,33.9580078 C48.7126093,33.9580078 56.8782178,35.9712527 64.3681641,39.9978027 C71.8581104,44.0243528 77.8133731,49.6276496 82.2341309,56.8078613 C86.6548886,63.988073 88.8652344,71.9425019 88.8652344,80.6713867 Z M41.0537109,108.969727 C48.2057649,108.969727 54.4426003,106.224393 59.7644043,100.733643 C65.0862082,95.2428925 67.7470703,88.893428 67.7470703,81.6850586 C67.7470703,74.0824815 64.903186,67.5359161 59.215332,62.045166 C53.5274781,56.5544159 46.7697331,53.809082 38.9418945,53.809082 C30.9451098,53.809082 25.0039257,56.2306073 21.1181641,61.0737305 L21.1181641,100.015625 C23.2581487,103.225602 25.8767749,105.52042 28.9741211,106.900146 C32.0714673,108.279873 36.097957,108.969727 41.0537109,108.969727 Z M160.58252,81.8540039 C158.386219,81.6850577 155.457863,81.6005859 151.797363,81.6005859 C148.136863,81.6005859 144.912856,81.8399227 142.125244,82.3186035 C139.337633,82.7972843 136.747164,83.6279238 134.35376,84.8105469 C131.960356,85.99317 130.116055,87.7107635 128.820801,89.9633789 C127.525547,92.2159943 126.87793,94.9754068 126.87793,98.2416992 C126.87793,102.127461 128.187243,105.069896 130.805908,107.069092 C133.424574,109.068288 136.845682,110.067871 141.069336,110.067871 C144.448259,110.067871 148.010154,109.476568 151.755127,108.293945 C155.5001,107.111322 158.442535,105.703459 160.58252,104.070312 L160.58252,81.8540039 Z M111.166016,47.8115234 C116.12177,43.4189233 120.739562,40.1949159 125.019531,38.1394043 C129.299501,36.0838927 134.621225,35.0561523 140.984863,35.0561523 C153.655825,35.0561523 163.60942,38.9700129 170.845947,46.7978516 C178.082474,54.6256902 181.700684,65.0438803 181.700684,78.0527344 L181.700684,125.864258 L164.806152,125.864258 L160.58252,119.613281 C154.387827,124.456404 147.883498,126.87793 141.069336,126.87793 C134.705697,126.87793 128.891221,125.793875 123.625732,123.625732 C118.360244,121.45759 114.06626,118.149111 110.743652,113.700195 C107.421045,109.25128 105.759766,104.014028 105.759766,97.9882812 C105.759766,93.5393658 106.632641,89.5269547 108.378418,85.9509277 C110.124195,82.3749007 112.44717,79.4183873 115.347412,77.0812988 C118.247654,74.7442103 121.69692,72.8013587 125.695312,71.2526855 C129.693705,69.7040124 133.846902,68.5918003 138.155029,67.9160156 C142.463156,67.240231 147.010555,66.9023438 151.797363,66.9023438 C153.655771,66.9023438 156.218083,66.9586583 159.484375,67.0712891 C158.527013,63.0728967 156.429297,59.8911251 153.191162,57.5258789 C149.953027,55.1606327 145.912459,53.9780273 141.069336,53.9780273 C132.95992,53.9780273 126.342962,55.920879 121.218262,59.8066406 L111.166016,47.8115234 Z M219.713379,44.8549805 C224.105979,38.3223957 231.257926,35.0561523 241.169434,35.0561523 C248.940957,35.0561523 255.529758,36.6611168 260.936035,39.8710938 L254.685059,56.8500977 C252.150866,55.4985284 250.193936,54.6819676 248.814209,54.4003906 C247.434482,54.1188137 244.77362,53.9780273 240.831543,53.9780273 C233.961066,53.9780273 228.723814,55.7378568 225.119629,59.2575684 C221.515444,62.77728 219.713379,67.8033528 219.713379,74.3359375 L219.713379,125.864258 L198.595215,125.864258 L198.595215,36.0698242 L215.489746,36.0698242 L219.713379,44.8549805 Z M292.613281,44.8549805 C297.005881,38.3223957 304.157828,35.0561523 314.069336,35.0561523 C321.840859,35.0561523 328.42966,36.6611168 333.835938,39.8710938 L327.584961,56.8500977 C325.050769,55.4985284 323.093838,54.6819676 321.714111,54.4003906 C320.334384,54.1188137 317.673522,53.9780273 313.731445,53.9780273 C306.860968,53.9780273 301.623716,55.7378568 298.019531,59.2575684 C294.415347,62.77728 292.613281,67.8033528 292.613281,74.3359375 L292.613281,125.864258 L271.495117,125.864258 L271.495117,36.0698242 L288.389648,36.0698242 L292.613281,44.8549805 Z M344.39502,0 L365.513184,0 L365.513184,21.2871094 L344.39502,21.2871094 L344.39502,0 Z M365.513184,125.864258 L344.39502,125.864258 L344.39502,36.0698242 L365.513184,36.0698242 L365.513184,125.864258 Z M382.830078,63.1010742 C382.830078,57.3569049 384.406885,52.3167535 387.560547,47.9804688 C390.714208,43.644184 394.811091,40.4060979 399.851318,38.2661133 C404.891545,36.1261286 410.396292,35.0561523 416.365723,35.0561523 C422.729361,35.0561523 428.022928,35.7882414 432.246582,37.2524414 C436.470236,38.7166414 441.707488,41.2507958 447.958496,44.8549805 L439.849121,60.9047852 C435.907044,58.3142774 432.373307,56.5122121 429.247803,55.4985352 C426.122299,54.4848582 421.800158,53.9780273 416.28125,53.9780273 C413.071273,53.9780273 410.21331,54.7805096 407.707275,56.385498 C405.201241,57.9904865 403.948242,60.2008323 403.948242,63.0166016 C403.948242,64.7060631 404.778882,66.2265557 406.440186,67.578125 C408.101489,68.9296943 410.269599,70.1263783 412.94458,71.1682129 C415.619561,72.2100475 418.561996,73.2659452 421.771973,74.3359375 C424.98195,75.4059298 428.205957,76.673007 431.444092,78.137207 C434.682226,79.6014071 437.63874,81.262686 440.313721,83.1210938 C442.988702,84.9795015 445.156811,87.3869481 446.818115,90.3435059 C448.479419,93.3000636 449.310059,96.6648574 449.310059,100.437988 C449.310059,106.125842 447.662858,111.025207 444.368408,115.13623 C441.073958,119.247254 436.906682,122.246003 431.866455,124.132568 C426.826228,126.019134 421.23701,126.962402 415.098633,126.962402 C407.721317,126.962402 401.428167,126.117684 396.218994,124.428223 C391.009821,122.738761 385.702175,120.007506 380.295898,116.234375 L389.418945,99.4243164 C396.965207,105.11217 405.553175,107.956055 415.183105,107.956055 C418.899921,107.956055 421.997221,107.378831 424.475098,106.224365 C426.952975,105.0699 428.191895,103.141127 428.191895,100.437988 C428.191895,98.9174729 427.361255,97.4955307 425.699951,96.1721191 C424.038647,94.8487076 421.870537,93.6238663 419.195557,92.4975586 C416.520576,91.3712509 413.578141,90.2168028 410.368164,89.0341797 C407.158187,87.8515566 403.93418,86.4718503 400.696045,84.8950195 C397.45791,83.3181887 394.501397,81.5865166 391.826416,79.6999512 C389.151435,77.8133857 386.983325,75.4340964 385.322021,72.5620117 C383.660718,69.689927 382.830078,66.5363127 382.830078,63.1010742 Z M464.092773,102.465332 L487.491699,102.465332 L487.491699,125.864258 L464.092773,125.864258 L464.092773,102.465332 Z" id="parris." fill="#000000"></path>
            <path d="M500.162598,0 L521.280762,0 L521.280762,21.2871094 L500.162598,21.2871094 L500.162598,0 Z M521.280762,125.864258 L500.162598,125.864258 L500.162598,36.0698242 L521.280762,36.0698242 L521.280762,125.864258 Z M585.817871,52.9643555 C578.38424,52.9643555 572.105169,55.6392962 566.980469,60.9892578 C561.855769,66.3392195 559.293457,72.8153917 559.293457,80.4179688 C559.293457,88.0205458 561.869847,94.5107967 567.022705,99.888916 C572.175563,105.267035 578.440556,107.956055 585.817871,107.956055 C593.195187,107.956055 599.432022,105.281114 604.528564,99.9311523 C609.625107,94.5811907 612.17334,88.0768612 612.17334,80.4179688 C612.17334,72.7590763 609.625107,66.2688254 604.528564,60.9470215 C599.432022,55.6252175 593.195187,52.9643555 585.817871,52.9643555 Z M585.817871,126.87793 C572.245863,126.87793 560.912562,122.471317 551.817627,113.657959 C542.722692,104.844601 538.175293,93.7647152 538.175293,80.4179688 C538.175293,71.6327686 540.258931,63.6924183 544.42627,56.5966797 C548.593608,49.5009411 554.309534,43.9539588 561.574219,39.9555664 C568.838904,35.957174 576.92004,33.9580078 585.817871,33.9580078 C599.389879,33.9580078 610.695023,38.350542 619.733643,47.1357422 C628.772262,55.9209424 633.291504,67.0149069 633.291504,80.4179688 C633.291504,89.2031689 631.221945,97.1435192 627.082764,104.239258 C622.943583,111.334996 617.255814,116.881979 610.019287,120.880371 C602.78276,124.878763 594.715702,126.87793 585.817871,126.87793 Z" id="io" fill="#969696"></path>
        </g>
    </g>
</svg>